<svg xmlns="http://www.w3.org/2000/svg" version="1.1" xmlns:xlink="http://www.w3.org/1999/xlink" viewBox="0 0 200 200"><rect width="200" height="200" fill="url('#gradient')"></rect><defs><linearGradient id="gradient" gradientTransform="rotate(45 0.5 0.5)"><stop offset="0%" stop-color="#dee90b"></stop><stop offset="100%" stop-color="#d9e241"></stop></linearGradient></defs><g><g fill="#1b3855" transform="matrix(3.815359138894639,0,0,3.815359138894639,5.9101571200970255,120.47060938834946)" stroke="#0e5278" stroke-width="0.2"><path d="M10.03-8.30L10.03-5.66L4.50-5.66L4.50 0L1.07 0L1.07-14.22L10.59-14.22L10.59-11.57L4.50-11.57L4.50-8.30L10.03-8.30ZM14.18-10.57L15.85-4.61L17.61-10.57L21.13-10.57L16.83 1.77L16.64 2.22Q15.72 4.27 13.40 4.27L13.40 4.27Q12.75 4.27 12.04 4.07L12.04 4.07L12.04 1.72L12.47 1.72Q13.16 1.72 13.53 1.52Q13.90 1.32 14.07 0.80L14.07 0.80L14.34 0.10L10.66-10.57L14.18-10.57ZM21.92-10.57L25.01-10.57L25.12-9.33Q26.21-10.76 28.13-10.76L28.13-10.76Q29.79-10.76 30.60-9.78Q31.42-8.79 31.45-6.81L31.45-6.81L31.45 0L28.14 0L28.14-6.67Q28.14-7.47 27.82-7.85Q27.50-8.22 26.65-8.22L26.65-8.22Q25.68-8.22 25.21-7.46L25.21-7.46L25.21 0L21.92 0L21.92-10.57ZM32.85-5.36L32.85-5.36Q32.85-7.87 33.94-9.32Q35.02-10.76 36.96-10.76L36.96-10.76Q38.38-10.76 39.35-9.65L39.35-9.65L39.35-15L42.65-15L42.65 0L39.69 0L39.52-1.13Q38.51 0.20 36.94 0.20L36.94 0.20Q35.06 0.20 33.96-1.25Q32.85-2.70 32.85-5.36ZM36.15-5.76L36.14-5.16Q36.14-2.34 37.78-2.34L37.78-2.34Q38.88-2.34 39.35-3.26L39.35-3.26L39.35-7.29Q38.90-8.22 37.80-8.22L37.80-8.22Q36.28-8.22 36.15-5.76L36.15-5.76ZM48.20-14.22L47.78-4.50L45.12-4.50L44.70-14.22L48.20-14.22ZM44.60-1.47L44.60-1.47Q44.60-2.20 45.12-2.66Q45.64-3.13 46.43-3.13Q47.21-3.13 47.73-2.66Q48.25-2.20 48.25-1.47Q48.25-0.75 47.73-0.29Q47.21 0.18 46.43 0.18Q45.64 0.18 45.12-0.29Q44.60-0.75 44.60-1.47Z"></path></g></g></svg>